<mxfile host="Electron" agent="Mozilla/5.0 (Windows NT 10.0; Win64; x64) AppleWebKit/537.36 (KHTML, like Gecko) draw.io/28.1.2 Chrome/138.0.7204.243 Electron/37.4.0 Safari/537.36" version="28.1.2">
  <diagram name="Page-1" id="j8GdYX6oakllIZBTfDct">
    <mxGraphModel dx="855" dy="1764" grid="1" gridSize="10" guides="1" tooltips="1" connect="1" arrows="1" fold="1" page="1" pageScale="1" pageWidth="827" pageHeight="1169" math="0" shadow="0">
      <root>
        <mxCell id="0" />
        <mxCell id="1" parent="0" />
        <mxCell id="8kzsMr0_6I6e5mMo5RrC-1" value="" style="rounded=0;whiteSpace=wrap;html=1;" vertex="1" parent="1">
          <mxGeometry x="40" y="60" width="150" height="450" as="geometry" />
        </mxCell>
        <mxCell id="8kzsMr0_6I6e5mMo5RrC-2" value="Source" style="rounded=0;whiteSpace=wrap;html=1;" vertex="1" parent="1">
          <mxGeometry x="50" y="-10" width="120" height="60" as="geometry" />
        </mxCell>
        <mxCell id="8kzsMr0_6I6e5mMo5RrC-3" value="" style="rounded=0;whiteSpace=wrap;html=1;" vertex="1" parent="1">
          <mxGeometry x="210" y="60" width="440" height="450" as="geometry" />
        </mxCell>
        <mxCell id="8kzsMr0_6I6e5mMo5RrC-4" value="" style="rounded=0;whiteSpace=wrap;html=1;" vertex="1" parent="1">
          <mxGeometry x="670" y="60" width="150" height="450" as="geometry" />
        </mxCell>
        <mxCell id="8kzsMr0_6I6e5mMo5RrC-5" value="Datawarehouse" style="rounded=0;whiteSpace=wrap;html=1;" vertex="1" parent="1">
          <mxGeometry x="290" y="-10" width="280" height="60" as="geometry" />
        </mxCell>
        <mxCell id="8kzsMr0_6I6e5mMo5RrC-6" value="consume" style="rounded=0;whiteSpace=wrap;html=1;" vertex="1" parent="1">
          <mxGeometry x="685" y="-10" width="120" height="60" as="geometry" />
        </mxCell>
        <mxCell id="8kzsMr0_6I6e5mMo5RrC-8" value="" style="image;aspect=fixed;html=1;points=[];align=center;fontSize=12;image=img/lib/azure2/general/Folder_Blank.svg;" vertex="1" parent="1">
          <mxGeometry x="75.5" y="80" width="69" height="56.00000000000001" as="geometry" />
        </mxCell>
        <mxCell id="8kzsMr0_6I6e5mMo5RrC-9" value="" style="verticalLabelPosition=bottom;html=1;verticalAlign=top;align=center;strokeColor=none;fillColor=#00BEF2;shape=mxgraph.azure.cloud_services_configuration_file;pointerEvents=1;" vertex="1" parent="1">
          <mxGeometry x="110" y="120" width="47.5" height="50" as="geometry" />
        </mxCell>
        <mxCell id="8kzsMr0_6I6e5mMo5RrC-10" value="" style="image;aspect=fixed;html=1;points=[];align=center;fontSize=12;image=img/lib/azure2/general/Folder_Blank.svg;" vertex="1" parent="1">
          <mxGeometry x="75.5" y="230" width="69" height="56.00000000000001" as="geometry" />
        </mxCell>
        <mxCell id="8kzsMr0_6I6e5mMo5RrC-11" value="" style="verticalLabelPosition=bottom;html=1;verticalAlign=top;align=center;strokeColor=none;fillColor=#00BEF2;shape=mxgraph.azure.cloud_services_configuration_file;pointerEvents=1;" vertex="1" parent="1">
          <mxGeometry x="110" y="270" width="47.5" height="50" as="geometry" />
        </mxCell>
        <mxCell id="8kzsMr0_6I6e5mMo5RrC-12" value="CRM" style="text;strokeColor=none;align=center;fillColor=none;html=1;verticalAlign=middle;whiteSpace=wrap;rounded=0;" vertex="1" parent="1">
          <mxGeometry x="84.5" y="170" width="60" height="30" as="geometry" />
        </mxCell>
        <mxCell id="8kzsMr0_6I6e5mMo5RrC-13" value="ERP" style="text;strokeColor=none;align=center;fillColor=none;html=1;verticalAlign=middle;whiteSpace=wrap;rounded=0;" vertex="1" parent="1">
          <mxGeometry x="80" y="330" width="60" height="30" as="geometry" />
        </mxCell>
        <mxCell id="8kzsMr0_6I6e5mMo5RrC-14" value="CSV in files" style="text;strokeColor=none;align=center;fillColor=none;html=1;verticalAlign=middle;whiteSpace=wrap;rounded=0;" vertex="1" parent="1">
          <mxGeometry x="65" y="430" width="90" height="60" as="geometry" />
        </mxCell>
        <mxCell id="8kzsMr0_6I6e5mMo5RrC-16" value="" style="endArrow=none;html=1;rounded=0;entryX=1;entryY=0.75;entryDx=0;entryDy=0;" edge="1" parent="1" target="8kzsMr0_6I6e5mMo5RrC-1">
          <mxGeometry width="50" height="50" relative="1" as="geometry">
            <mxPoint x="40" y="400" as="sourcePoint" />
            <mxPoint x="90" y="350" as="targetPoint" />
          </mxGeometry>
        </mxCell>
        <mxCell id="8kzsMr0_6I6e5mMo5RrC-21" value="" style="rounded=1;whiteSpace=wrap;html=1;fillColor=#ffcc99;strokeColor=#36393d;arcSize=20;" vertex="1" parent="1">
          <mxGeometry x="220" y="90" width="130" height="380" as="geometry" />
        </mxCell>
        <mxCell id="8kzsMr0_6I6e5mMo5RrC-22" value="" style="rounded=1;whiteSpace=wrap;html=1;fillColor=#f5f5f5;strokeColor=#666666;gradientColor=#b3b3b3;" vertex="1" parent="1">
          <mxGeometry x="365" y="90" width="130" height="380" as="geometry" />
        </mxCell>
        <mxCell id="8kzsMr0_6I6e5mMo5RrC-23" value="" style="rounded=1;whiteSpace=wrap;html=1;fillColor=#fff2cc;gradientColor=#ffd966;strokeColor=#d6b656;" vertex="1" parent="1">
          <mxGeometry x="510" y="90" width="130" height="380" as="geometry" />
        </mxCell>
        <mxCell id="8kzsMr0_6I6e5mMo5RrC-24" value="" style="shape=cylinder3;whiteSpace=wrap;html=1;boundedLbl=1;backgroundOutline=1;size=15;" vertex="1" parent="1">
          <mxGeometry x="255" y="180" width="60" height="80" as="geometry" />
        </mxCell>
        <mxCell id="8kzsMr0_6I6e5mMo5RrC-25" value="" style="shape=cylinder3;whiteSpace=wrap;html=1;boundedLbl=1;backgroundOutline=1;size=15;" vertex="1" parent="1">
          <mxGeometry x="400" y="180" width="60" height="80" as="geometry" />
        </mxCell>
        <mxCell id="8kzsMr0_6I6e5mMo5RrC-26" value="" style="shape=cylinder3;whiteSpace=wrap;html=1;boundedLbl=1;backgroundOutline=1;size=15;" vertex="1" parent="1">
          <mxGeometry x="545" y="180" width="60" height="80" as="geometry" />
        </mxCell>
        <mxCell id="8kzsMr0_6I6e5mMo5RrC-29" value="" style="shape=flexArrow;endArrow=classic;html=1;rounded=0;fillColor=#d80073;strokeColor=#A50040;width=22;endSize=6.12;entryX=-0.025;entryY=0.627;entryDx=0;entryDy=0;entryPerimeter=0;" edge="1" parent="1">
          <mxGeometry width="50" height="50" relative="1" as="geometry">
            <mxPoint x="190" y="230" as="sourcePoint" />
            <mxPoint x="252.5" y="230.00000000000023" as="targetPoint" />
          </mxGeometry>
        </mxCell>
        <mxCell id="8kzsMr0_6I6e5mMo5RrC-30" value="" style="shape=flexArrow;endArrow=classic;html=1;rounded=0;fillColor=#d80073;strokeColor=#A50040;width=22;endSize=6.12;entryX=-0.025;entryY=0.627;entryDx=0;entryDy=0;entryPerimeter=0;" edge="1" parent="1">
          <mxGeometry width="50" height="50" relative="1" as="geometry">
            <mxPoint x="330" y="230" as="sourcePoint" />
            <mxPoint x="392.5" y="230.00000000000023" as="targetPoint" />
          </mxGeometry>
        </mxCell>
        <mxCell id="8kzsMr0_6I6e5mMo5RrC-31" value="" style="shape=flexArrow;endArrow=classic;html=1;rounded=0;fillColor=#d80073;strokeColor=#A50040;width=22;endSize=6.12;entryX=-0.025;entryY=0.627;entryDx=0;entryDy=0;entryPerimeter=0;" edge="1" parent="1">
          <mxGeometry width="50" height="50" relative="1" as="geometry">
            <mxPoint x="470" y="230" as="sourcePoint" />
            <mxPoint x="532.5" y="230.00000000000023" as="targetPoint" />
          </mxGeometry>
        </mxCell>
        <mxCell id="8kzsMr0_6I6e5mMo5RrC-32" value="&lt;font style=&quot;color: rgb(0, 0, 0);&quot;&gt;Raw data&lt;/font&gt;" style="text;strokeColor=none;align=center;fillColor=none;html=1;verticalAlign=middle;whiteSpace=wrap;rounded=0;" vertex="1" parent="1">
          <mxGeometry x="255" y="270" width="60" height="30" as="geometry" />
        </mxCell>
        <mxCell id="8kzsMr0_6I6e5mMo5RrC-33" value="&lt;font style=&quot;color: rgb(0, 0, 0);&quot;&gt;cleaned, standardized&lt;/font&gt;&lt;div&gt;&lt;font style=&quot;color: rgb(0, 0, 0);&quot;&gt;data&lt;/font&gt;&lt;/div&gt;" style="text;strokeColor=none;align=center;fillColor=none;html=1;verticalAlign=middle;whiteSpace=wrap;rounded=0;" vertex="1" parent="1">
          <mxGeometry x="400" y="270" width="60" height="30" as="geometry" />
        </mxCell>
        <mxCell id="8kzsMr0_6I6e5mMo5RrC-34" value="&lt;font style=&quot;color: rgb(0, 0, 0);&quot;&gt;business ready&lt;/font&gt;&lt;div&gt;&lt;font style=&quot;color: rgb(0, 0, 0);&quot;&gt;data&lt;/font&gt;&lt;/div&gt;" style="text;strokeColor=none;align=center;fillColor=none;html=1;verticalAlign=middle;whiteSpace=wrap;rounded=0;" vertex="1" parent="1">
          <mxGeometry x="545" y="270" width="60" height="30" as="geometry" />
        </mxCell>
        <mxCell id="8kzsMr0_6I6e5mMo5RrC-35" value="" style="shape=flexArrow;endArrow=classic;html=1;rounded=0;fillColor=#d80073;strokeColor=#A50040;width=22;endSize=6.12;entryX=-0.025;entryY=0.627;entryDx=0;entryDy=0;entryPerimeter=0;" edge="1" parent="1">
          <mxGeometry width="50" height="50" relative="1" as="geometry">
            <mxPoint x="622.5" y="230" as="sourcePoint" />
            <mxPoint x="685" y="230.00000000000023" as="targetPoint" />
          </mxGeometry>
        </mxCell>
        <mxCell id="8kzsMr0_6I6e5mMo5RrC-36" value="" style="image;aspect=fixed;html=1;points=[];align=center;fontSize=12;image=img/lib/azure2/analytics/Power_BI_Embedded.svg;" vertex="1" parent="1">
          <mxGeometry x="718.75" y="120" width="51" height="68" as="geometry" />
        </mxCell>
        <mxCell id="8kzsMr0_6I6e5mMo5RrC-37" value="" style="sketch=0;verticalLabelPosition=bottom;sketch=0;aspect=fixed;html=1;verticalAlign=top;strokeColor=none;fillColor=#00CC00;align=center;outlineConnect=0;pointerEvents=1;shape=mxgraph.citrix2.professional_graphics_desktop;" vertex="1" parent="1">
          <mxGeometry x="705.25" y="230" width="79.5" height="79.45" as="geometry" />
        </mxCell>
        <mxCell id="8kzsMr0_6I6e5mMo5RrC-38" value="" style="sketch=0;points=[[0,0,0],[0.25,0,0],[0.5,0,0],[0.75,0,0],[1,0,0],[0,1,0],[0.25,1,0],[0.5,1,0],[0.75,1,0],[1,1,0],[0,0.25,0],[0,0.5,0],[0,0.75,0],[1,0.25,0],[1,0.5,0],[1,0.75,0]];outlineConnect=0;fontColor=#232F3E;fillColor=#01A88D;strokeColor=#ffffff;dashed=0;verticalLabelPosition=bottom;verticalAlign=top;align=center;html=1;fontSize=12;fontStyle=0;aspect=fixed;shape=mxgraph.aws4.resourceIcon;resIcon=mxgraph.aws4.machine_learning;" vertex="1" parent="1">
          <mxGeometry x="705.25" y="340" width="78" height="78" as="geometry" />
        </mxCell>
      </root>
    </mxGraphModel>
  </diagram>
</mxfile>
